<?xml version="1.0" encoding="utf-8"?>
<!-- Generator: Adobe Illustrator 24.1.3, SVG Export Plug-In . SVG Version: 6.00 Build 0)  -->
<svg version="1.1" id="Layer_1" xmlns="http://www.w3.org/2000/svg" xmlns:xlink="http://www.w3.org/1999/xlink" x="0px" y="0px"
	 viewBox="0 0 24 24" style="enable-background:new 0 0 24 24;" xml:space="preserve">
<style type="text/css">
	.st0{fill:none;}
	.st1{fill:#FA4338;}
</style>
<g id="Boundary">
	<rect x="0" y="0" class="st0" width="24" height="24"/>
</g>
<path class="st1" d="M12,0C5.4,0,0,4.8,0,10.7c0,5.9,5.4,10.7,12,10.7c1.1,0,2.2-0.1,3.3-0.4c0.5-0.1,1-0.1,1.5,0.2l4.2,2.3
	c0.4,0.2,0.8,0.1,1-0.3c0.1-0.1,0.1-0.2,0.1-0.4v-5.6c0-0.4,0.1-0.8,0.4-1.1c1.1-1.6,1.7-3.5,1.6-5.4C24,4.8,18.6,0,12,0z M6,13
	c-1.1,0-2-0.9-2-2s0.9-2,2-2s2,0.9,2,2S7.1,13,6,13z M12,13c-1.1,0-2-0.9-2-2s0.9-2,2-2s2,0.9,2,2S13.1,13,12,13z M18,13
	c-1.1,0-2-0.9-2-2s0.9-2,2-2s2,0.9,2,2S19.1,13,18,13z"/>
</svg>
