<?xml version="1.0" encoding="utf-8"?>
<!-- Generator: Adobe Illustrator 24.1.3, SVG Export Plug-In . SVG Version: 6.00 Build 0)  -->
<svg version="1.1" id="Layer_1" xmlns="http://www.w3.org/2000/svg" xmlns:xlink="http://www.w3.org/1999/xlink" x="0px" y="0px"
	 viewBox="0 0 24 24" style="enable-background:new 0 0 24 24;" xml:space="preserve">
<style type="text/css">
	.st0{fill:none;}
	.st1{fill:#FA4338;}
</style>
<g id="Boundary">
	<rect x="0" y="0" class="st0" width="24" height="24"/>
</g>
<g id="Design">
	<path class="st1" d="M22,4H2C0.9,4,0,4.9,0,6v12c0,1.1,0.9,2,2,2h20c1.1,0,2-0.9,2-2V6C24,4.9,23.1,4,22,4z M21.5,8.9l-9,5
		c-0.3,0.2-0.7,0.2-1,0l-9-5C2,8.6,1.8,8,2.1,7.5s0.9-0.7,1.3-0.4c0,0,0,0,0.1,0l8.5,4.7l8.5-4.7C21,6.8,21.6,7,21.9,7.5
		S22,8.6,21.5,8.9C21.5,8.9,21.5,8.9,21.5,8.9z"/>
</g>
</svg>
