<?xml version="1.0" encoding="utf-8"?>
<!-- Generator: Adobe Illustrator 24.1.3, SVG Export Plug-In . SVG Version: 6.00 Build 0)  -->
<svg version="1.1" id="Layer_1" xmlns="http://www.w3.org/2000/svg" xmlns:xlink="http://www.w3.org/1999/xlink" x="0px" y="0px"
	 viewBox="0 0 24 24" style="enable-background:new 0 0 24 24;" xml:space="preserve">
<style type="text/css">
	.st0{fill:none;}
	.st1{fill:#FA4338;}
</style>
<g id="Boundary">
	<rect x="0" y="0" class="st0" width="24" height="24"/>
</g>
<path class="st1" d="M12,0C5.4,0,0,5.4,0,12s5.4,12,12,12s12-5.4,12-12S18.6,0,12,0z M11.9,5.8c0.6,0,1.1,0.5,1.1,1.1S12.5,8,11.9,8
	s-1.1-0.5-1.1-1.1S11.3,5.8,11.9,5.8z M14.4,18H9.6c-0.6,0-1-0.4-1-1s0.4-1,1-1H11v-4H9.6c-0.6,0-1-0.4-1-1s0.4-1,1-1H12
	c0.6,0,1,0.4,1,1v5h1.4c0.6,0,1,0.4,1,1S15,18,14.4,18z"/>
</svg>
