<?xml version="1.0" encoding="utf-8"?>
<!-- Generator: Adobe Illustrator 24.1.3, SVG Export Plug-In . SVG Version: 6.00 Build 0)  -->
<svg version="1.1" id="Layer_1" xmlns="http://www.w3.org/2000/svg" xmlns:xlink="http://www.w3.org/1999/xlink" x="0px" y="0px"
	 viewBox="0 0 24 24" style="enable-background:new 0 0 24 24;" xml:space="preserve">
<style type="text/css">
	.st0{fill:none;}
	.st1{fill:#FA4338;}
</style>
<g id="Boundary">
	<rect x="0" y="0" class="st0" width="24" height="24"/>
</g>
<g id="Design">
	<path class="st1" d="M14,1.4l-9.8,12c-0.3,0.5-0.2,1.1,0.2,1.4C4.6,14.9,4.8,15,5,15h5.1l-3,6.5c-0.2,0.6,0.1,1.2,0.6,1.4
		c0.4,0.2,0.9,0,1.2-0.3l9.8-10.9c0.4-0.4,0.3-1.1-0.1-1.5c-0.2-0.2-0.4-0.3-0.7-0.3l-5.3,0l3.3-7.6C16,1.8,15.7,1.2,15.1,1
		C14.7,0.9,14.3,1,14,1.4z"/>
</g>
</svg>
