<?xml version="1.0" encoding="utf-8"?>
<!-- Generator: Adobe Illustrator 24.1.3, SVG Export Plug-In . SVG Version: 6.00 Build 0)  -->
<svg version="1.1" id="Layer_1" xmlns="http://www.w3.org/2000/svg" xmlns:xlink="http://www.w3.org/1999/xlink" x="0px" y="0px"
	 viewBox="0 0 24 24" style="enable-background:new 0 0 24 24;" xml:space="preserve">
<style type="text/css">
	.st0{fill:none;}
	.st1{fill:#FA4338;}
</style>
<g id="Boundary">
	<g>
		<rect x="0" y="0" class="st0" width="24" height="24"/>
	</g>
</g>
<g id="Design">
	<g>
		<path class="st1" d="M18,0H6C4.9,0,4,0.9,4,2v20c0,1.1,0.9,2,2,2h12c1.1,0,2-0.9,2-2V2C20,0.9,19.1,0,18,0z M17.5,22h-11
			C6.2,22,6,21.8,6,21.5v-19C6,2.2,6.2,2,6.5,2h1.1C7.8,2,8,2.2,8,2.4l0,0V3c0,0.5,0.4,1,1,1l0,0H15c0.5,0,1-0.4,1-1c0,0,0,0,0,0
			V2.4C16,2.2,16.2,2,16.4,2h1.1C17.8,2,18,2.2,18,2.5v19C18,21.8,17.8,22,17.5,22z"/>
	</g>
	<g>
		<path class="st1" d="M15,20.1H9c-0.6,0-1.1-0.5-1.1-1.1s0.5-1.1,1.1-1.1h6c0.6,0,1.1,0.5,1.1,1.1S15.6,20.1,15,20.1z"/>
	</g>
</g>
</svg>
