<?xml version="1.0" encoding="utf-8"?>
<!-- Generator: Adobe Illustrator 24.1.3, SVG Export Plug-In . SVG Version: 6.00 Build 0)  -->
<svg version="1.1" id="Layer_1" xmlns="http://www.w3.org/2000/svg" xmlns:xlink="http://www.w3.org/1999/xlink" x="0px" y="0px"
	 viewBox="0 0 24 24" style="enable-background:new 0 0 24 24;" xml:space="preserve">
<style type="text/css">
	.st0{fill:none;}
	.st1{fill:#FA4338;}
</style>
<g id="Boundary">
	<rect x="0" y="0" class="st0" width="24" height="24"/>
</g>
<g>
	<path class="st1" d="M7,10h10c0.6,0,1-0.4,1-1s-0.4-1-1-1H7C6.4,8,6,8.4,6,9S6.4,10,7,10z"/>
	<path class="st1" d="M9.5,12H5c-0.5,0-1-0.4-1.1-0.9l-0.7-6C3.1,4,2.1,3.1,1,3L0,3l0.8,9.4C0.9,13.9,2.2,15,3.6,15H5v5H3
		c-0.6,0-1,0.4-1,1s0.4,1,1,1h6c0.6,0,1-0.4,1-1s-0.4-1-1-1H7v-5h2.5c0.8,0,1.5-0.7,1.5-1.5C11,12.7,10.3,12,9.5,12z"/>
	<path class="st1" d="M23,3c-1.2,0-2.1,0.9-2.3,2.1l-0.7,6C20,11.6,19.6,12,19.1,12h-4.6c-0.8,0-1.5,0.7-1.5,1.5
		c0,0.8,0.7,1.5,1.5,1.5H17v5h-2c-0.6,0-1,0.4-1,1s0.4,1,1,1h6c0.6,0,1-0.4,1-1s-0.4-1-1-1h-2v-5h1.4c1.5,0,2.7-1.1,2.9-2.6L24,3
		L23,3z"/>
</g>
</svg>
