<?xml version="1.0" encoding="utf-8"?>
<!-- Generator: Adobe Illustrator 24.1.3, SVG Export Plug-In . SVG Version: 6.00 Build 0)  -->
<svg version="1.1" id="Layer_1" xmlns="http://www.w3.org/2000/svg" xmlns:xlink="http://www.w3.org/1999/xlink" x="0px" y="0px"
	 viewBox="0 0 24 24" style="enable-background:new 0 0 24 24;" xml:space="preserve">
<style type="text/css">
	.st0{fill:none;}
	.st1{fill:#FA4338;}
</style>
<g id="Boundary">
	<rect x="0" y="0" class="st0" width="24" height="24"/>
</g>
<path class="st1" d="M19.3,10h-2.2l0-3.4c0.2-2.9-2.1-5.4-5-5.6l-0.1,0l-0.1,0C9.1,1.1,6.8,3.6,7,6.5V10H4.7C3.8,10,3,10.8,3,11.7
	v9.6C3,22.2,3.8,23,4.7,23h14.6c0.9,0,1.7-0.8,1.7-1.7v-9.6C21,10.8,20.2,10,19.3,10z M12,3.1c1.7,0.1,3,1.6,2.9,3.4v3.4H9.1l0-3.5
	C9,4.7,10.3,3.2,12,3.1z"/>
</svg>
