<?xml version="1.0" encoding="UTF-8"?>
<svg width="100px" height="32px" viewBox="0 0 100 32" version="1.1" xmlns="http://www.w3.org/2000/svg" xmlns:xlink="http://www.w3.org/1999/xlink">
    <!-- Generator: Sketch 63.1 (92452) - https://sketch.com -->
    <title>Logo</title>
    <desc>Created with Sketch.</desc>
    <defs>
        <polygon id="path-1" points="0.44909772 0.207815647 12.0364475 0.207815647 12.0364475 18.0527186 0.44909772 18.0527186"></polygon>
        <polygon id="path-3" points="0 0.0502779661 26.3095322 0.0502779661 26.3095322 31.2404827 0 31.2404827"></polygon>
    </defs>
    <g id="Components" stroke="none" stroke-width="1" fill="none" fill-rule="evenodd">
        <g id="Style-guide" transform="translate(-112.000000, -24.000000)">
            <g id="Nav" transform="translate(112.000000, 24.000000)">
                <g id="Logo">
                    <path d="M45.6264732,22.5960407 L38.4718698,22.5960407 C38.3981614,22.5960407 38.3386088,22.5364881 38.3386088,22.4627797 L38.3386088,17.4608542 C38.3386088,17.3871458 38.3981614,17.3275932 38.4718698,17.3275932 L43.5001546,17.3275932 C44.1073953,17.3275932 44.6135919,16.8467797 44.6135919,16.2400271 C44.6135919,15.6074034 44.1073953,15.1261017 43.5001546,15.1261017 L38.4718698,15.1261017 C38.3981614,15.1261017 38.3386088,15.0665492 38.3386088,14.9928407 L38.3386088,9.69656949 C38.3386088,9.62286102 38.3976732,9.56330847 38.4718698,9.56330847 L45.323341,9.56330847 C45.9305817,9.56330847 46.4362902,9.08249492 46.4362902,8.44987119 C46.4362902,7.84214237 45.9305817,7.36132881 45.323341,7.36132881 L37.1748936,7.36132881 C36.5417817,7.36132881 35.984819,7.91829153 35.984819,8.57629831 L35.984819,23.5830508 C35.984819,24.2405695 36.5417817,24.7975322 37.1748936,24.7975322 L45.6264732,24.7975322 C46.2337139,24.7975322 46.7399105,24.3162305 46.7399105,23.709478 C46.7399105,23.0768542 46.2337139,22.5960407 45.6264732,22.5960407" id="Fill-1" fill="#3F4450"></path>
                    <path d="M55.3348556,12.7267688 C54.0437369,12.7267688 52.3489302,13.3335214 51.6401573,14.750579 L51.6401573,14.0173993 C51.6401573,13.3842875 51.1339607,12.8527078 50.4759539,12.8527078 C49.8433302,12.8527078 49.3376217,13.3842875 49.3376217,14.0173993 L49.3376217,23.7596095 C49.3376217,24.3922332 49.8433302,24.924301 50.476442,24.924301 C51.1339607,24.924301 51.6401573,24.3922332 51.6401573,23.7596095 L51.6401573,18.4198942 C51.6401573,15.9152705 53.3100692,14.9790264 54.979981,14.9790264 C56.6001031,14.9790264 57.5866251,16.1427417 57.5866251,18.116762 L57.5866251,23.7596095 C57.5866251,24.3922332 58.0928217,24.924301 58.7254454,24.924301 C59.3839403,24.924301 59.8896488,24.3922332 59.8896488,23.7596095 L59.8896488,17.9649519 C59.8896488,14.6495349 58.2705031,12.7267688 55.3348556,12.7267688" id="Fill-3" fill="#3F4450"></path>
                    <path d="M72.4148664,12.9033763 C71.8076258,12.7266712 71.2506631,13.0302915 70.9978088,13.6629153 L67.8312732,21.7732881 C67.787341,21.8860475 67.6277207,21.8865356 67.5833003,21.7737763 L64.3928461,13.6629153 C64.1399919,13.0302915 63.5830292,12.7266712 62.9757885,12.9033763 C62.3431647,13.0551864 62.0390563,13.7893424 62.2416325,14.3463051 L66.1891851,23.835661 C66.4932936,24.5190508 66.9741071,24.9242034 67.6574969,24.9242034 L67.7839241,24.9242034 C68.4668258,24.9242034 68.9227444,24.5190508 69.2009817,23.835661 L73.1231512,14.3463051 C73.3257275,13.7893424 73.0474902,13.0551864 72.4148664,12.9033763" id="Fill-5" fill="#3F4450"></path>
                    <path d="M80.8571227,22.8236583 C78.7312922,22.8236583 76.9598481,21.2547905 76.9598481,18.8507227 C76.9598481,16.472038 78.7312922,14.9788312 80.8571227,14.9788312 C82.9824651,14.9788312 84.753421,16.472038 84.753421,18.8507227 C84.753421,21.2547905 82.9824651,22.8236583 80.8571227,22.8236583 M80.8571227,12.7265736 C77.4909397,12.7265736 74.6822075,15.1047702 74.6822075,18.8507227 C74.6822075,22.5961871 77.4909397,25.0505329 80.8571227,25.0505329 C84.2228176,25.0505329 87.0569329,22.5961871 87.0569329,18.8507227 C87.0569329,15.1047702 84.2228176,12.7265736 80.8571227,12.7265736" id="Fill-7" fill="#3F4450"></path>
                    <g id="Group-11" transform="translate(87.376271, 12.641394)">
                        <mask id="mask-2" fill="white">
                            <use xlink:href="#path-1"></use>
                        </mask>
                        <g id="Clip-10"></g>
                        <path d="M11.3316285,0.287023729 C10.7497708,0.0595525424 10.0658929,0.337789831 9.83842169,0.919647458 L6.6718861,8.59362712 C6.62648949,8.70345763 6.47077424,8.70345763 6.42537763,8.59411525 L3.28471322,0.996284746 C3.03088271,0.363661017 2.44951322,0.0854237288 1.81688949,0.262128814 C1.20964881,0.439322034 0.93092339,1.17298983 1.13301153,1.75484746 L5.26215051,11.7504 C5.27630644,11.7835932 5.27581831,11.8202034 5.26166237,11.8529085 L4.62610983,13.370522 C3.91782508,15.040922 3.4106522,15.9771661 1.89255051,15.9771661 L1.5386522,15.9771661 C0.981689492,15.9522712 0.475981017,16.3823186 0.450109831,16.9641763 C0.42472678,17.5206508 0.880157288,17.9765695 1.43663186,18.0268475 C1.71535729,18.0527186 1.89255051,18.0527186 1.94380475,18.0527186 C4.42353356,18.0527186 5.53697085,16.9387932 6.72558102,14.2564881 L11.9393573,1.78071864 C12.1922115,1.19837288 11.9393573,0.515471186 11.3316285,0.287023729" id="Fill-9" fill="#3F4450" mask="url(#mask-2)"></path>
                    </g>
                    <path d="M9.50302373,9.56345492 L16.5678102,9.56345492 C17.175539,9.56345492 17.6690441,9.07043797 17.6690441,8.46222102 C17.6690441,7.8544922 17.175539,7.36098712 16.5678102,7.36098712 L9.50302373,7.36098712 C8.89529492,7.36098712 8.40227797,7.8544922 8.40227797,8.46222102 C8.40227797,9.07043797 8.89529492,9.56345492 9.50302373,9.56345492" id="Fill-12" fill="#FA4338"></path>
                    <g id="Group-16" transform="translate(0.000000, 0.438004)">
                        <mask id="mask-4" fill="white">
                            <use xlink:href="#path-3"></use>
                        </mask>
                        <g id="Clip-15"></g>
                        <path d="M24.1070644,27.8030319 C24.1070644,28.4849573 23.5540068,29.0385031 22.8715932,29.0385031 L3.43793898,29.0385031 C2.75552542,29.0385031 2.2024678,28.4849573 2.2024678,27.8030319 L2.2024678,3.48753356 C2.2024678,2.80560814 2.75552542,2.25206237 3.43793898,2.25206237 L22.8715932,2.25206237 C23.5540068,2.25206237 24.1070644,2.80560814 24.1070644,3.48753356 L24.1070644,27.8030319 Z M23.5154441,0.0500827119 L2.79408814,0.0500827119 C1.25109153,0.0500827119 0,1.30117424 0,2.84417085 L0,28.4463946 C0,29.9893912 1.25109153,31.2404827 2.79408814,31.2404827 L23.5154441,31.2404827 C25.0584407,31.2404827 26.3095322,29.9893912 26.3095322,28.4463946 L26.3095322,2.84417085 C26.3095322,1.30117424 25.0584407,0.0500827119 23.5154441,0.0500827119 L23.5154441,0.0500827119 Z" id="Fill-14" fill="#FA4338" mask="url(#mask-4)"></path>
                    </g>
                    <path d="M16.7774156,22.6034115 L10.6044529,22.6034115 L10.6044529,19.7697844 L14.107802,19.7697844 C14.7155308,19.7697844 15.2085478,19.2772556 15.2085478,18.6690386 C15.2085478,18.0608217 14.7155308,17.5678047 14.107802,17.5678047 L10.6044529,17.5678047 L10.6044529,14.9289437 L16.5104054,14.9289437 C17.1186224,14.9289437 17.6116393,14.4359268 17.6116393,13.8277098 C17.6116393,13.2194929 17.1186224,12.7269641 16.5104054,12.7269641 L9.50321898,12.7269641 C8.89549017,12.7269641 8.40247322,13.2194929 8.40247322,13.8277098 L8.40247322,23.7046454 C8.40247322,24.3123742 8.89549017,24.8058793 9.50321898,24.8058793 L16.7774156,24.8058793 C17.3856325,24.8058793 17.8786495,24.3123742 17.8786495,23.7046454 C17.8786495,23.0964285 17.3856325,22.6034115 16.7774156,22.6034115" id="Fill-17" fill="#FA4338"></path>
                </g>
            </g>
        </g>
    </g>
</svg>
